<?xml version="1.0" encoding="iso-8859-1"?>
<!-- Generator: Adobe Illustrator 19.0.0, SVG Export Plug-In . SVG Version: 6.00 Build 0)  -->
<svg version="1.1" id="Capa_1" xmlns="http://www.w3.org/2000/svg" xmlns:xlink="http://www.w3.org/1999/xlink" x="0px" y="0px"
	 viewBox="0 0 512 512" style="enable-background:new 0 0 512 512;" xml:space="preserve">
<path style="fill:#61DE56;" d="M510.083,7.663C507.428,2.931,502.426,0,497,0H15C9.574,0,4.571,2.931,1.917,7.663
	c-2.653,4.732-2.546,10.529,0.284,15.158l174.531,285.6V448.8c0,6.253,3.879,11.85,9.732,14.045l128.533,48.2
	c1.708,0.641,3.492,0.955,5.267,0.955c3.013,0,6-0.907,8.545-2.671c4.044-2.803,6.456-7.409,6.456-12.329V308.421L509.799,22.822
	C512.629,18.192,512.737,12.396,510.083,7.663z"/>
<path style="fill:#13C37B;" d="M510.083,7.663C507.428,2.931,502.426,0,497,0H256v488.92l58.998,22.125
	c1.708,0.641,3.492,0.955,5.267,0.955c3.013,0,6-0.907,8.545-2.671c4.044-2.803,6.456-7.409,6.456-12.329V308.421L509.799,22.822
	C512.629,18.192,512.737,12.396,510.083,7.663z"/>
<g>
</g>
<g>
</g>
<g>
</g>
<g>
</g>
<g>
</g>
<g>
</g>
<g>
</g>
<g>
</g>
<g>
</g>
<g>
</g>
<g>
</g>
<g>
</g>
<g>
</g>
<g>
</g>
<g>
</g>
</svg>
